<svg width="25" height="24" viewBox="0 0 25 24" fill="none" xmlns="http://www.w3.org/2000/svg">
<rect x="0.266602" width="24" height="24" rx="12" fill="#A0AEC0"/>
<path fill-rule="evenodd" clip-rule="evenodd" d="M7.54863 7.64816C7.54863 5.08067 9.66018 3 12.2658 3C14.8714 3 16.9845 5.08067 16.9845 7.64816C16.9845 10.2172 14.8714 12.2979 12.2658 12.2979C9.66018 12.2979 7.54863 10.2172 7.54863 7.64816ZM12.3002 22C15.4154 22 18.2346 20.7711 20.2666 18.794V17.3915C20.2666 15.6956 18.8346 14.3191 17.0666 14.3191H7.4666C5.6986 14.3191 4.2666 15.6956 4.2666 17.3915V18.7233C6.3034 20.7403 9.1498 22 12.3002 22Z" fill="white"/>
</svg>
